# xmcd
#
# Track frame offsets: 
#        150
#        11936
#        21883
#        32533
#        43601
#        55206
#        65501
#        77935
#        88251
#        99110
#        109363
#        120606
#        131291
#        144185
#        156542
#        168028
#        179180
#        189552
#        200607
#        212073
#        222772
#        233074
#
# Disc length: 3248 seconds
#
# Revision: 0
# Processed by: cddbd v1.5.2PL0 Copyright (c) Steve Scherf et al.
# Submitted via: ExactAudioCopy v0.99pb4
#
DISCID=390cae16
DTITLE=Robert Johnson - The Complete Recordings 2nd Ed  [CD2)
DYEAR=1990
DGENRE=Accoustic
TTITLE0=Hellhound On My Trail
TTITLE1=Little Queen Of Spades
TTITLE2=Malted Milk
TTITLE3=Drunken Hearted Man
TTITLE4=Me And The Devil Blues
TTITLE5=Stop Breakin' Down Blues
TTITLE6=Traveling Riverside Blues
TTITLE7=Honeymoon Blues
TTITLE8=Love In Vain
TTITLE9=Milkcow's Calf Blues
TTITLE10=Kindhearted Woman Blues (Alternate_Take)
TTITLE11=Rambling On My Mind (Alternate_Take)
TTITLE12=When You Got A Good Friend (Alternate_Take)
TTITLE13=Come On My Mind (Alternate_Take)
TTITLE14=Phonograph Blues (Alternate_Take)
TTITLE15=Cross Road Blues (Alternate_Take)
TTITLE16=Little Queen Of Spades (Alternate_Take)
TTITLE17=Drunken Hearted Man (Alternate_Take)
TTITLE18=Me And The Devil Blues (Alternate_Take)
TTITLE19=Stop Breakin' Down Blues (Alternate_Take)
TTITLE20=Love In Vain (Alternate_Take)
TTITLE21=Milkcow's Calf Blues (Alternate_Take)
EXTD=
EXTT0=
EXTT1=
EXTT2=
EXTT3=
EXTT4=
EXTT5=
EXTT6=
EXTT7=
EXTT8=
EXTT9=
EXTT10=
EXTT11=
EXTT12=
EXTT13=
EXTT14=
EXTT15=
EXTT16=
EXTT17=
EXTT18=
EXTT19=
EXTT20=
EXTT21=
PLAYORDER=
